<?xml version="1.0" encoding="utf-8"?>
<!-- Generator: Adobe Illustrator 17.0.0, SVG Export Plug-In . SVG Version: 6.00 Build 0)  -->
<!DOCTYPE svg PUBLIC "-//W3C//DTD SVG 1.1//EN" "http://www.w3.org/Graphics/SVG/1.1/DTD/svg11.dtd">
<svg version="1.1" id="Layer_1" xmlns="http://www.w3.org/2000/svg" xmlns:xlink="http://www.w3.org/1999/xlink" x="0px" y="0px"
	 width="32px" height="32px" viewBox="0 0 490.475 595.28" enable-background="new 0 0 490.475 595.28"
	 xml:space="preserve">
<g>
	<polygon fill="#FCC141" points="26.591,177.099 8.441,90.559 127.34,65.574 177.218,194.262 	"/>
</g>
<g>
	<polygon fill="#0F4591" points="328.476,89.913 417.611,142.193 434.572,222.789 297.806,207.942 	"/>
</g>
<g>
	<polygon fill="#F9ECE1" points="319.398,423.464 470.126,391.745 447.798,285.643 329.118,366.018 	"/>
</g>
<g>
	<polygon fill="#255451" points="164.914,275.274 191.203,256.796 232.773,282.487 257.358,436.497 124.83,464.408 	"/>
</g>
<g>
	<path fill="#222" d="M419.195,149.717l-3.369-16.008l-80.209-47.762l17.802-67.965l-13.081,2.753l-46.979,179.475
		l-111.572-12.685l-15.817-40.508l68.044-103.907L217.47,46.59l-56.824,86.789l-27-69.149l-11.765,2.476l46.516,119.296
		L25.106,169.71l2.519,12.305l69.182,7.848l22.472,109.49L60.917,339.93l2.677,12.72l92.884-64.603l-0.005,0.004l-38.006,177.678
		l12.8-2.693l39.534-184.951l21.017-14.618l33.548,20.705l26.923,153.396l11.659-2.453l-25.015-142.635l87.205,53.687l0.001-0.007
		l-13.102,78.625l12.765-2.686l8.424-50.884l114.825-79.617l-2.642-12.556l-109.472,75.795l22.38-135.191l76.417,8.669l-2.569-12.21
		L305.331,201.57L332.47,97.959L419.195,149.717z M129.934,291.945l-20.661-100.668l142.244,16.137L129.934,291.945z
		 M347.446,218.298l-19.215,115.309l-125.763-77.547l67.011-46.607L347.446,218.298z"/>
</g>

</svg>
